<mxfile host="app.diagrams.net" modified="2023-06-01T13:48:40.653Z" agent="Mozilla/5.0 (Windows NT 10.0; Win64; x64) AppleWebKit/537.36 (KHTML, like Gecko) Chrome/113.0.0.0 Safari/537.36" etag="rmlOwigL0_dCCrC6dcam" version="21.3.6" type="github">
  <diagram name="Page-1" id="35pqKoHUVtBYQdD1kzEH">
    <mxGraphModel dx="1048" dy="446" grid="1" gridSize="10" guides="1" tooltips="1" connect="1" arrows="1" fold="1" page="1" pageScale="1" pageWidth="827" pageHeight="1169" math="0" shadow="0">
      <root>
        <mxCell id="0" />
        <mxCell id="1" parent="0" />
        <mxCell id="cvgiTLHkZxJhIL0Y9kGM-1" value="AWS Shoreline Global Non-Prod Account" style="points=[[0,0],[0.25,0],[0.5,0],[0.75,0],[1,0],[1,0.25],[1,0.5],[1,0.75],[1,1],[0.75,1],[0.5,1],[0.25,1],[0,1],[0,0.75],[0,0.5],[0,0.25]];outlineConnect=0;gradientColor=none;html=1;whiteSpace=wrap;fontSize=12;fontStyle=0;container=1;pointerEvents=0;collapsible=0;recursiveResize=0;shape=mxgraph.aws4.group;grIcon=mxgraph.aws4.group_account;strokeColor=#CD2264;fillColor=none;verticalAlign=top;align=left;spacingLeft=30;fontColor=#CD2264;dashed=0;" parent="1" vertex="1">
          <mxGeometry x="180" y="50" width="552" height="270" as="geometry" />
        </mxCell>
        <mxCell id="cvgiTLHkZxJhIL0Y9kGM-33" value="" style="edgeStyle=orthogonalEdgeStyle;rounded=0;orthogonalLoop=1;jettySize=auto;html=1;" parent="cvgiTLHkZxJhIL0Y9kGM-1" source="r8ijON2OsOiev5sQsJvA-1" edge="1">
          <mxGeometry relative="1" as="geometry">
            <mxPoint x="407" y="55" as="targetPoint" />
          </mxGeometry>
        </mxCell>
        <mxCell id="cvgiTLHkZxJhIL0Y9kGM-3" value="" style="sketch=0;points=[[0,0,0],[0.25,0,0],[0.5,0,0],[0.75,0,0],[1,0,0],[0,1,0],[0.25,1,0],[0.5,1,0],[0.75,1,0],[1,1,0],[0,0.25,0],[0,0.5,0],[0,0.75,0],[1,0.25,0],[1,0.5,0],[1,0.75,0]];outlineConnect=0;fontColor=#232F3E;gradientColor=#60A337;gradientDirection=north;fillColor=#277116;strokeColor=#ffffff;dashed=0;verticalLabelPosition=bottom;verticalAlign=top;align=center;html=1;fontSize=12;fontStyle=0;aspect=fixed;shape=mxgraph.aws4.resourceIcon;resIcon=mxgraph.aws4.iot_events;" parent="cvgiTLHkZxJhIL0Y9kGM-1" vertex="1">
          <mxGeometry x="20" y="35" width="40" height="40" as="geometry" />
        </mxCell>
        <mxCell id="cvgiTLHkZxJhIL0Y9kGM-4" value="AWS Events" style="text;html=1;align=center;verticalAlign=middle;resizable=0;points=[];autosize=1;strokeColor=none;fillColor=none;" parent="cvgiTLHkZxJhIL0Y9kGM-1" vertex="1">
          <mxGeometry y="75" width="90" height="30" as="geometry" />
        </mxCell>
        <mxCell id="cvgiTLHkZxJhIL0Y9kGM-7" value="" style="sketch=0;points=[[0,0,0],[0.25,0,0],[0.5,0,0],[0.75,0,0],[1,0,0],[0,1,0],[0.25,1,0],[0.5,1,0],[0.75,1,0],[1,1,0],[0,0.25,0],[0,0.5,0],[0,0.75,0],[1,0.25,0],[1,0.5,0],[1,0.75,0]];outlineConnect=0;fontColor=#232F3E;gradientColor=#FF4F8B;gradientDirection=north;fillColor=#BC1356;strokeColor=#ffffff;dashed=0;verticalLabelPosition=bottom;verticalAlign=top;align=center;html=1;fontSize=12;fontStyle=0;aspect=fixed;shape=mxgraph.aws4.resourceIcon;resIcon=mxgraph.aws4.eventbridge;" parent="cvgiTLHkZxJhIL0Y9kGM-1" vertex="1">
          <mxGeometry x="425" y="126" width="44" height="44" as="geometry" />
        </mxCell>
        <mxCell id="cvgiTLHkZxJhIL0Y9kGM-8" value="Event Bridge rule filter &lt;br&gt;specific schema/tables status" style="text;html=1;align=center;verticalAlign=middle;resizable=0;points=[];autosize=1;strokeColor=none;fillColor=none;" parent="cvgiTLHkZxJhIL0Y9kGM-1" vertex="1">
          <mxGeometry x="357" y="170" width="180" height="40" as="geometry" />
        </mxCell>
        <mxCell id="cvgiTLHkZxJhIL0Y9kGM-10" value="" style="sketch=0;outlineConnect=0;fontColor=#232F3E;gradientColor=none;fillColor=#B0084D;strokeColor=none;dashed=0;verticalLabelPosition=bottom;verticalAlign=top;align=center;html=1;fontSize=12;fontStyle=0;aspect=fixed;pointerEvents=1;shape=mxgraph.aws4.eventbridge_custom_event_bus_resource;" parent="cvgiTLHkZxJhIL0Y9kGM-1" vertex="1">
          <mxGeometry x="418.74" y="30" width="56.52" height="50" as="geometry" />
        </mxCell>
        <mxCell id="cvgiTLHkZxJhIL0Y9kGM-11" value="Custom Event Bus for sc-data-orch" style="text;html=1;align=center;verticalAlign=middle;resizable=0;points=[];autosize=1;strokeColor=none;fillColor=none;" parent="cvgiTLHkZxJhIL0Y9kGM-1" vertex="1">
          <mxGeometry x="342" y="80" width="210" height="30" as="geometry" />
        </mxCell>
        <mxCell id="r8ijON2OsOiev5sQsJvA-2" value="" style="edgeStyle=orthogonalEdgeStyle;rounded=0;orthogonalLoop=1;jettySize=auto;html=1;" edge="1" parent="cvgiTLHkZxJhIL0Y9kGM-1" source="cvgiTLHkZxJhIL0Y9kGM-3" target="r8ijON2OsOiev5sQsJvA-1">
          <mxGeometry relative="1" as="geometry">
            <mxPoint x="587" y="105" as="targetPoint" />
            <mxPoint x="240" y="105" as="sourcePoint" />
          </mxGeometry>
        </mxCell>
        <mxCell id="r8ijON2OsOiev5sQsJvA-1" value="" style="sketch=0;outlineConnect=0;fontColor=#232F3E;gradientColor=none;fillColor=#B0084D;strokeColor=none;dashed=0;verticalLabelPosition=bottom;verticalAlign=top;align=center;html=1;fontSize=12;fontStyle=0;aspect=fixed;pointerEvents=1;shape=mxgraph.aws4.eventbridge_default_event_bus_resource;" vertex="1" parent="cvgiTLHkZxJhIL0Y9kGM-1">
          <mxGeometry x="203" y="34.25" width="61.08" height="41.5" as="geometry" />
        </mxCell>
        <mxCell id="r8ijON2OsOiev5sQsJvA-3" value="Default Event Bus" style="text;html=1;align=center;verticalAlign=middle;resizable=0;points=[];autosize=1;strokeColor=none;fillColor=none;" vertex="1" parent="cvgiTLHkZxJhIL0Y9kGM-1">
          <mxGeometry x="173.54000000000002" y="68" width="120" height="30" as="geometry" />
        </mxCell>
        <mxCell id="cvgiTLHkZxJhIL0Y9kGM-2" value="" style="sketch=0;outlineConnect=0;fontColor=#232F3E;gradientColor=none;fillColor=#BF0816;strokeColor=none;dashed=0;verticalLabelPosition=bottom;verticalAlign=top;align=center;html=1;fontSize=12;fontStyle=0;aspect=fixed;pointerEvents=1;shape=mxgraph.aws4.role;" parent="1" vertex="1">
          <mxGeometry x="930" y="169" width="56.73" height="32" as="geometry" />
        </mxCell>
        <mxCell id="cvgiTLHkZxJhIL0Y9kGM-5" value="IAM Role to access Shoreline events&lt;br&gt;Create and Update Event Bridge rules&lt;br style=&quot;border-color: var(--border-color);&quot;&gt;&amp;nbsp;to Send Table Status" style="text;html=1;align=center;verticalAlign=middle;resizable=0;points=[];autosize=1;strokeColor=none;fillColor=none;" parent="1" vertex="1">
          <mxGeometry x="843.36" y="210" width="230" height="60" as="geometry" />
        </mxCell>
        <mxCell id="cvgiTLHkZxJhIL0Y9kGM-6" value="" style="endArrow=classic;html=1;rounded=0;fillColor=#AD429B;strokeColor=#A6387E;" parent="1" source="cvgiTLHkZxJhIL0Y9kGM-2" target="cvgiTLHkZxJhIL0Y9kGM-1" edge="1">
          <mxGeometry width="50" height="50" relative="1" as="geometry">
            <mxPoint x="670" y="180" as="sourcePoint" />
            <mxPoint x="720" y="130" as="targetPoint" />
          </mxGeometry>
        </mxCell>
        <mxCell id="cvgiTLHkZxJhIL0Y9kGM-20" value="AWS Gov Apps Non-Prod Account" style="points=[[0,0],[0.25,0],[0.5,0],[0.75,0],[1,0],[1,0.25],[1,0.5],[1,0.75],[1,1],[0.75,1],[0.5,1],[0.25,1],[0,1],[0,0.75],[0,0.5],[0,0.25]];outlineConnect=0;gradientColor=none;html=1;whiteSpace=wrap;fontSize=12;fontStyle=0;container=1;pointerEvents=0;collapsible=0;recursiveResize=0;shape=mxgraph.aws4.group;grIcon=mxgraph.aws4.group_account;strokeColor=#CD2264;fillColor=none;verticalAlign=top;align=left;spacingLeft=30;fontColor=#CD2264;dashed=0;" parent="1" vertex="1">
          <mxGeometry x="180" y="420" width="550" height="270" as="geometry" />
        </mxCell>
        <mxCell id="cvgiTLHkZxJhIL0Y9kGM-32" style="edgeStyle=orthogonalEdgeStyle;rounded=0;orthogonalLoop=1;jettySize=auto;html=1;" parent="cvgiTLHkZxJhIL0Y9kGM-20" source="cvgiTLHkZxJhIL0Y9kGM-23" target="cvgiTLHkZxJhIL0Y9kGM-30" edge="1">
          <mxGeometry relative="1" as="geometry" />
        </mxCell>
        <mxCell id="cvgiTLHkZxJhIL0Y9kGM-23" value="" style="sketch=0;points=[[0,0,0],[0.25,0,0],[0.5,0,0],[0.75,0,0],[1,0,0],[0,1,0],[0.25,1,0],[0.5,1,0],[0.75,1,0],[1,1,0],[0,0.25,0],[0,0.5,0],[0,0.75,0],[1,0.25,0],[1,0.5,0],[1,0.75,0]];outlineConnect=0;fontColor=#232F3E;gradientColor=#FF4F8B;gradientDirection=north;fillColor=#BC1356;strokeColor=#ffffff;dashed=0;verticalLabelPosition=bottom;verticalAlign=top;align=center;html=1;fontSize=12;fontStyle=0;aspect=fixed;shape=mxgraph.aws4.resourceIcon;resIcon=mxgraph.aws4.eventbridge;" parent="cvgiTLHkZxJhIL0Y9kGM-20" vertex="1">
          <mxGeometry x="425" y="121" width="44" height="44" as="geometry" />
        </mxCell>
        <mxCell id="cvgiTLHkZxJhIL0Y9kGM-24" value="Event Bridge to Trigger Lambda" style="text;html=1;align=center;verticalAlign=middle;resizable=0;points=[];autosize=1;strokeColor=none;fillColor=none;" parent="cvgiTLHkZxJhIL0Y9kGM-20" vertex="1">
          <mxGeometry x="352" y="165" width="190" height="30" as="geometry" />
        </mxCell>
        <mxCell id="cvgiTLHkZxJhIL0Y9kGM-25" value="" style="sketch=0;outlineConnect=0;fontColor=#232F3E;gradientColor=none;fillColor=#B0084D;strokeColor=none;dashed=0;verticalLabelPosition=bottom;verticalAlign=top;align=center;html=1;fontSize=12;fontStyle=0;aspect=fixed;pointerEvents=1;shape=mxgraph.aws4.eventbridge_custom_event_bus_resource;" parent="cvgiTLHkZxJhIL0Y9kGM-20" vertex="1">
          <mxGeometry x="418.74" y="10" width="56.52" height="50" as="geometry" />
        </mxCell>
        <mxCell id="cvgiTLHkZxJhIL0Y9kGM-26" value="Default Bus" style="text;html=1;align=center;verticalAlign=middle;resizable=0;points=[];autosize=1;strokeColor=none;fillColor=none;" parent="cvgiTLHkZxJhIL0Y9kGM-20" vertex="1">
          <mxGeometry x="402" y="60" width="90" height="30" as="geometry" />
        </mxCell>
        <mxCell id="cvgiTLHkZxJhIL0Y9kGM-30" value="" style="sketch=0;outlineConnect=0;fontColor=#232F3E;gradientColor=none;fillColor=#D45B07;strokeColor=none;dashed=0;verticalLabelPosition=bottom;verticalAlign=top;align=center;html=1;fontSize=12;fontStyle=0;aspect=fixed;pointerEvents=1;shape=mxgraph.aws4.lambda_function;" parent="cvgiTLHkZxJhIL0Y9kGM-20" vertex="1">
          <mxGeometry x="220" y="119" width="48" height="48" as="geometry" />
        </mxCell>
        <mxCell id="cvgiTLHkZxJhIL0Y9kGM-27" value="" style="endArrow=classic;html=1;rounded=0;fillColor=#913782;strokeColor=#B83E8B;" parent="1" source="cvgiTLHkZxJhIL0Y9kGM-8" target="cvgiTLHkZxJhIL0Y9kGM-25" edge="1">
          <mxGeometry width="50" height="50" relative="1" as="geometry">
            <mxPoint x="701" y="350" as="sourcePoint" />
            <mxPoint x="620" y="350" as="targetPoint" />
          </mxGeometry>
        </mxCell>
      </root>
    </mxGraphModel>
  </diagram>
</mxfile>
